<mxfile host="app.diagrams.net" agent="Mozilla/5.0 (Windows NT 10.0; Win64; x64) AppleWebKit/537.36 (KHTML, like Gecko) Chrome/130.0.0.0 Safari/537.36" version="24.8.3">
  <diagram name="Page-1" id="WHYkjARNRkV7fy6AoxBt">
    <mxGraphModel dx="1524" dy="1160" grid="0" gridSize="10" guides="1" tooltips="1" connect="1" arrows="1" fold="1" page="0" pageScale="1" pageWidth="850" pageHeight="1100" math="0" shadow="0">
      <root>
        <mxCell id="0" />
        <mxCell id="1" parent="0" />
        <mxCell id="QHzoPkIgWm9l1lLSCyCy-54" value="" style="rounded=0;whiteSpace=wrap;html=1;" vertex="1" parent="1">
          <mxGeometry x="94" y="87" width="143" height="346" as="geometry" />
        </mxCell>
        <mxCell id="QHzoPkIgWm9l1lLSCyCy-37" value="" style="edgeStyle=none;curved=1;rounded=0;orthogonalLoop=1;jettySize=auto;html=1;fontSize=12;startSize=8;endSize=8;" edge="1" parent="1" source="QHzoPkIgWm9l1lLSCyCy-2" target="QHzoPkIgWm9l1lLSCyCy-12">
          <mxGeometry relative="1" as="geometry" />
        </mxCell>
        <mxCell id="QHzoPkIgWm9l1lLSCyCy-2" value="read_csv_data" style="rounded=0;whiteSpace=wrap;html=1;" vertex="1" parent="1">
          <mxGeometry x="105" y="99" width="120" height="60" as="geometry" />
        </mxCell>
        <mxCell id="QHzoPkIgWm9l1lLSCyCy-3" value="" style="rounded=0;whiteSpace=wrap;html=1;" vertex="1" parent="1">
          <mxGeometry x="466" y="-55" width="204" height="463" as="geometry" />
        </mxCell>
        <mxCell id="QHzoPkIgWm9l1lLSCyCy-4" value="" style="rounded=0;whiteSpace=wrap;html=1;" vertex="1" parent="1">
          <mxGeometry x="472" y="129" width="190" height="247" as="geometry" />
        </mxCell>
        <mxCell id="QHzoPkIgWm9l1lLSCyCy-5" value="" style="rounded=0;whiteSpace=wrap;html=1;" vertex="1" parent="1">
          <mxGeometry x="470" y="-40" width="194" height="138" as="geometry" />
        </mxCell>
        <mxCell id="QHzoPkIgWm9l1lLSCyCy-6" value="reward_from_table" style="rounded=0;whiteSpace=wrap;html=1;" vertex="1" parent="1">
          <mxGeometry x="105" y="358.5" width="120" height="60" as="geometry" />
        </mxCell>
        <mxCell id="QHzoPkIgWm9l1lLSCyCy-8" value="get_metric_success" style="rounded=0;whiteSpace=wrap;html=1;" vertex="1" parent="1">
          <mxGeometry x="481.5" y="144" width="169" height="28" as="geometry" />
        </mxCell>
        <mxCell id="QHzoPkIgWm9l1lLSCyCy-9" value="get_metric_navigation_time" style="rounded=0;whiteSpace=wrap;html=1;" vertex="1" parent="1">
          <mxGeometry x="481.5" y="178" width="171" height="24" as="geometry" />
        </mxCell>
        <mxCell id="QHzoPkIgWm9l1lLSCyCy-10" value="get_metric_dram" style="rounded=0;whiteSpace=wrap;html=1;" vertex="1" parent="1">
          <mxGeometry x="482" y="341" width="170" height="23" as="geometry" />
        </mxCell>
        <mxCell id="QHzoPkIgWm9l1lLSCyCy-11" value="" style="endArrow=none;dashed=1;html=1;dashPattern=1 3;strokeWidth=2;rounded=0;fontSize=12;startSize=8;endSize=8;curved=1;exitX=0.5;exitY=0;exitDx=0;exitDy=0;entryX=0.5;entryY=1;entryDx=0;entryDy=0;" edge="1" parent="1" source="QHzoPkIgWm9l1lLSCyCy-10" target="QHzoPkIgWm9l1lLSCyCy-9">
          <mxGeometry width="50" height="50" relative="1" as="geometry">
            <mxPoint x="285" y="262" as="sourcePoint" />
            <mxPoint x="335" y="212" as="targetPoint" />
            <Array as="points" />
          </mxGeometry>
        </mxCell>
        <mxCell id="QHzoPkIgWm9l1lLSCyCy-29" value="" style="edgeStyle=none;curved=1;rounded=0;orthogonalLoop=1;jettySize=auto;html=1;fontSize=12;startSize=8;endSize=8;" edge="1" parent="1" source="QHzoPkIgWm9l1lLSCyCy-12" target="QHzoPkIgWm9l1lLSCyCy-6">
          <mxGeometry relative="1" as="geometry" />
        </mxCell>
        <mxCell id="QHzoPkIgWm9l1lLSCyCy-12" value="reward_from_column" style="rounded=0;whiteSpace=wrap;html=1;" vertex="1" parent="1">
          <mxGeometry x="105" y="221" width="120" height="60" as="geometry" />
        </mxCell>
        <mxCell id="QHzoPkIgWm9l1lLSCyCy-13" value="Z_score_standardization" style="rounded=0;whiteSpace=wrap;html=1;" vertex="1" parent="1">
          <mxGeometry x="483" y="-36" width="169" height="28" as="geometry" />
        </mxCell>
        <mxCell id="QHzoPkIgWm9l1lLSCyCy-15" value="" style="endArrow=classic;html=1;rounded=0;fontSize=12;startSize=8;endSize=8;curved=1;exitX=0.5;exitY=1;exitDx=0;exitDy=0;entryX=0.5;entryY=0;entryDx=0;entryDy=0;" edge="1" parent="1" source="QHzoPkIgWm9l1lLSCyCy-12" target="QHzoPkIgWm9l1lLSCyCy-6">
          <mxGeometry width="50" height="50" relative="1" as="geometry">
            <mxPoint x="171" y="166" as="sourcePoint" />
            <mxPoint x="174" y="240" as="targetPoint" />
          </mxGeometry>
        </mxCell>
        <mxCell id="QHzoPkIgWm9l1lLSCyCy-21" value="get processed&amp;nbsp;&lt;div&gt;metrices values(single reward)&lt;/div&gt;" style="shape=note;whiteSpace=wrap;html=1;backgroundOutline=1;darkOpacity=0.05;" vertex="1" parent="1">
          <mxGeometry x="-102" y="182" width="184" height="46" as="geometry" />
        </mxCell>
        <mxCell id="QHzoPkIgWm9l1lLSCyCy-24" value="" style="endArrow=none;dashed=1;html=1;rounded=0;fontSize=12;startSize=8;endSize=8;curved=1;entryX=0;entryY=0;entryDx=0;entryDy=0;exitX=0;exitY=0;exitDx=184;exitDy=38;exitPerimeter=0;" edge="1" parent="1" source="QHzoPkIgWm9l1lLSCyCy-21" target="QHzoPkIgWm9l1lLSCyCy-12">
          <mxGeometry width="50" height="50" relative="1" as="geometry">
            <mxPoint x="59" y="245" as="sourcePoint" />
            <mxPoint x="286" y="316" as="targetPoint" />
          </mxGeometry>
        </mxCell>
        <mxCell id="QHzoPkIgWm9l1lLSCyCy-27" value="get&amp;nbsp;&lt;span style=&quot;background-color: initial;&quot;&gt;weighted_rewards&lt;/span&gt;&lt;div&gt;&lt;span style=&quot;background-color: initial;&quot;&gt;(weight and sum all rewards&lt;/span&gt;&lt;span style=&quot;background-color: initial;&quot;&gt;)&lt;/span&gt;&lt;/div&gt;" style="shape=note;whiteSpace=wrap;html=1;backgroundOutline=1;darkOpacity=0.05;" vertex="1" parent="1">
          <mxGeometry x="-105" y="315.5" width="190" height="55.5" as="geometry" />
        </mxCell>
        <mxCell id="QHzoPkIgWm9l1lLSCyCy-28" value="" style="endArrow=none;dashed=1;html=1;rounded=0;fontSize=12;startSize=8;endSize=8;curved=1;exitX=0;exitY=0;exitDx=190;exitDy=42.75;exitPerimeter=0;entryX=0;entryY=0;entryDx=0;entryDy=0;" edge="1" parent="1" source="QHzoPkIgWm9l1lLSCyCy-27" target="QHzoPkIgWm9l1lLSCyCy-6">
          <mxGeometry width="50" height="50" relative="1" as="geometry">
            <mxPoint x="2" y="393" as="sourcePoint" />
            <mxPoint x="105" y="389" as="targetPoint" />
          </mxGeometry>
        </mxCell>
        <mxCell id="QHzoPkIgWm9l1lLSCyCy-31" value="all functions related to&amp;nbsp;&lt;div&gt;calculate each reward&lt;/div&gt;" style="shape=note;whiteSpace=wrap;html=1;backgroundOutline=1;darkOpacity=0.05;" vertex="1" parent="1">
          <mxGeometry x="254" y="-130" width="184" height="44" as="geometry" />
        </mxCell>
        <mxCell id="QHzoPkIgWm9l1lLSCyCy-32" value="" style="endArrow=none;dashed=1;html=1;rounded=0;fontSize=12;startSize=8;endSize=8;curved=1;exitX=0;exitY=0;exitDx=184;exitDy=30;exitPerimeter=0;entryX=0;entryY=0;entryDx=0;entryDy=0;" edge="1" parent="1" source="QHzoPkIgWm9l1lLSCyCy-31" target="QHzoPkIgWm9l1lLSCyCy-3">
          <mxGeometry width="50" height="50" relative="1" as="geometry">
            <mxPoint x="448" y="-72" as="sourcePoint" />
            <mxPoint x="524" y="-56" as="targetPoint" />
          </mxGeometry>
        </mxCell>
        <mxCell id="QHzoPkIgWm9l1lLSCyCy-38" value="Now includes 15&amp;nbsp;&lt;div&gt;metric calculations&lt;/div&gt;" style="shape=note;whiteSpace=wrap;html=1;backgroundOutline=1;darkOpacity=0.05;" vertex="1" parent="1">
          <mxGeometry x="260" y="99" width="184" height="48" as="geometry" />
        </mxCell>
        <mxCell id="QHzoPkIgWm9l1lLSCyCy-39" value="" style="endArrow=none;dashed=1;html=1;rounded=0;fontSize=12;startSize=8;endSize=8;curved=1;entryX=0;entryY=0;entryDx=0;entryDy=0;exitX=0;exitY=0;exitDx=184;exitDy=30;exitPerimeter=0;" edge="1" parent="1" source="QHzoPkIgWm9l1lLSCyCy-38" target="QHzoPkIgWm9l1lLSCyCy-4">
          <mxGeometry width="50" height="50" relative="1" as="geometry">
            <mxPoint x="473" y="286" as="sourcePoint" />
            <mxPoint x="523" y="236" as="targetPoint" />
          </mxGeometry>
        </mxCell>
        <mxCell id="QHzoPkIgWm9l1lLSCyCy-41" value="common rules" style="shape=note;whiteSpace=wrap;html=1;backgroundOutline=1;darkOpacity=0.05;" vertex="1" parent="1">
          <mxGeometry x="260" y="-72" width="184" height="36" as="geometry" />
        </mxCell>
        <mxCell id="QHzoPkIgWm9l1lLSCyCy-44" value="" style="endArrow=none;dashed=1;html=1;rounded=0;fontSize=12;startSize=8;endSize=8;curved=1;entryX=0;entryY=0;entryDx=0;entryDy=0;exitX=0;exitY=0;exitDx=184;exitDy=33;exitPerimeter=0;" edge="1" parent="1" source="QHzoPkIgWm9l1lLSCyCy-41" target="QHzoPkIgWm9l1lLSCyCy-5">
          <mxGeometry width="50" height="50" relative="1" as="geometry">
            <mxPoint x="473" y="286" as="sourcePoint" />
            <mxPoint x="523" y="236" as="targetPoint" />
          </mxGeometry>
        </mxCell>
        <mxCell id="QHzoPkIgWm9l1lLSCyCy-47" value="" style="endArrow=classic;html=1;rounded=0;fontSize=12;startSize=8;endSize=8;curved=1;entryX=1;entryY=0.5;entryDx=0;entryDy=0;exitX=0;exitY=0.5;exitDx=0;exitDy=0;" edge="1" parent="1">
          <mxGeometry relative="1" as="geometry">
            <mxPoint x="471" y="252.49999999999977" as="sourcePoint" />
            <mxPoint x="224" y="251" as="targetPoint" />
          </mxGeometry>
        </mxCell>
        <mxCell id="QHzoPkIgWm9l1lLSCyCy-48" value="Called" style="edgeLabel;resizable=0;html=1;fontSize=12;;align=center;verticalAlign=middle;" connectable="0" vertex="1" parent="QHzoPkIgWm9l1lLSCyCy-47">
          <mxGeometry relative="1" as="geometry" />
        </mxCell>
        <mxCell id="QHzoPkIgWm9l1lLSCyCy-50" value="" style="endArrow=classic;html=1;rounded=0;fontSize=12;startSize=8;endSize=8;curved=1;exitX=1;exitY=0.5;exitDx=0;exitDy=0;entryX=1;entryY=0.5;entryDx=0;entryDy=0;" edge="1" parent="1" source="QHzoPkIgWm9l1lLSCyCy-5" target="QHzoPkIgWm9l1lLSCyCy-4">
          <mxGeometry relative="1" as="geometry">
            <mxPoint x="795" y="116" as="sourcePoint" />
            <mxPoint x="895" y="116" as="targetPoint" />
            <Array as="points">
              <mxPoint x="784" y="118" />
            </Array>
          </mxGeometry>
        </mxCell>
        <mxCell id="QHzoPkIgWm9l1lLSCyCy-51" value="Called by some of them" style="edgeLabel;resizable=0;html=1;fontSize=12;;align=center;verticalAlign=middle;" connectable="0" vertex="1" parent="QHzoPkIgWm9l1lLSCyCy-50">
          <mxGeometry relative="1" as="geometry" />
        </mxCell>
        <mxCell id="QHzoPkIgWm9l1lLSCyCy-55" value="main flow" style="shape=note;whiteSpace=wrap;html=1;backgroundOutline=1;darkOpacity=0.05;" vertex="1" parent="1">
          <mxGeometry x="-81" y="56" width="152" height="42" as="geometry" />
        </mxCell>
        <mxCell id="QHzoPkIgWm9l1lLSCyCy-58" value="" style="endArrow=none;dashed=1;html=1;rounded=0;fontSize=12;startSize=8;endSize=8;curved=1;entryX=0;entryY=0;entryDx=0;entryDy=0;exitX=0;exitY=0;exitDx=152;exitDy=30;exitPerimeter=0;" edge="1" parent="1" source="QHzoPkIgWm9l1lLSCyCy-55" target="QHzoPkIgWm9l1lLSCyCy-54">
          <mxGeometry width="50" height="50" relative="1" as="geometry">
            <mxPoint x="363" y="197" as="sourcePoint" />
            <mxPoint x="413" y="147" as="targetPoint" />
          </mxGeometry>
        </mxCell>
      </root>
    </mxGraphModel>
  </diagram>
</mxfile>
